<?xml version="1.0" encoding="UTF-8"?>
<!DOCTYPE svg PUBLIC "-//W3C//DTD SVG 1.1//EN" "http://www.w3.org/Graphics/SVG/1.1/DTD/svg11.dtd">
<svg xmlns="http://www.w3.org/2000/svg" version="1.1" width="200px" height="200px" style="shape-rendering:geometricPrecision; text-rendering:geometricPrecision; image-rendering:optimizeQuality; fill-rule:evenodd; clip-rule:evenodd" xmlns:xlink="http://www.w3.org/1999/xlink">
<g><path style="opacity:1" fill="#1532f1" d="M -0.5,-0.5 C 8.83333,-0.5 18.1667,-0.5 27.5,-0.5C 26.4324,0.434475 25.099,0.767809 23.5,0.5C 23.5,1.5 23.5,2.5 23.5,3.5C 31.4133,2.5821 39.2466,2.5821 47,3.5C 48.0588,3.63008 48.8921,4.13008 49.5,5C 46.4119,5.57921 43.7452,6.91254 41.5,9C 27.5324,9.01573 13.5324,9.51573 -0.5,10.5C -0.5,6.83333 -0.5,3.16667 -0.5,-0.5 Z"/></g>
<g><path style="opacity:1" fill="#8a1df3" d="M 27.5,-0.5 C 55.1667,-0.5 82.8333,-0.5 110.5,-0.5C 105.801,0.681835 101.134,2.18183 96.5,4C 97.5,4.33333 98.5,4.66667 99.5,5C 98.5494,5.71752 98.3828,6.55085 99,7.5C 100.734,6.36213 102.568,5.86213 104.5,6C 105.501,7.99151 105.501,10.1582 104.5,12.5C 103.284,13.0959 101.951,13.2626 100.5,13C 101.28,14.073 101.113,15.2396 100,16.5C 99.6335,12.7188 98.3001,12.0522 96,14.5C 94.8869,13.2889 93.7202,13.2889 92.5,14.5C 91.3522,16.4234 90.8522,18.4234 91,20.5C 93.0907,21.4996 94.7574,20.8329 96,18.5C 96.8996,19.7702 98.0663,20.7702 99.5,21.5C 99.2907,22.086 98.9574,22.586 98.5,23C 107.531,23.2823 116.531,23.949 125.5,25C 114.833,25.3333 104.167,25.6667 93.5,26C 88.6627,27.7676 83.996,27.6009 79.5,25.5C 74.655,25.9068 70.655,26.9068 67.5,28.5C 63.048,29.2632 58.7146,30.7632 54.5,33C 70.0094,33.7049 85.5094,33.5382 101,32.5C 133.71,35.3296 166.543,36.9963 199.5,37.5C 199.5,39.8333 199.5,42.1667 199.5,44.5C 186.856,43.3111 174.189,42.3111 161.5,41.5C 161.5,43.5 161.5,45.5 161.5,47.5C 157.154,47.6657 152.821,47.499 148.5,47C 146.269,46.378 144.435,45.2113 143,43.5C 142.085,44.3279 141.419,45.3279 141,46.5C 140.333,45.1667 139.667,45.1667 139,46.5C 138.46,44.8654 138.96,43.5321 140.5,42.5C 139.441,41.3036 138.107,40.637 136.5,40.5C 125.753,42.5178 114.919,43.8511 104,44.5C 101.1,44.1003 98.267,43.4336 95.5,42.5C 95.8076,41.6919 96.3076,41.0253 97,40.5C 106.047,40.362 115.214,40.362 124.5,40.5C 126.389,40.5637 128.056,40.0637 129.5,39C 118.245,38.5888 107.079,37.7554 96,36.5C 94.769,37.1078 93.4357,37.4411 92,37.5C 85.3723,36.6258 78.8723,35.6258 72.5,34.5C 59.4066,36.238 46.4066,35.738 33.5,33C 36.0635,32.237 36.0635,31.737 33.5,31.5C 26.5243,33.3506 19.5243,34.0172 12.5,33.5C 13.7287,32.7189 15.062,32.2189 16.5,32C 10.9562,30.5962 5.28956,30.0962 -0.5,30.5C -0.5,29.1667 -0.5,27.8333 -0.5,26.5C 2.61597,27.0754 5.78264,27.4087 9,27.5C 16.2798,26.3482 23.6132,25.6815 31,25.5C 39.4986,26.2003 47.9986,26.367 56.5,26C 46.4518,24.3294 36.2852,23.496 26,23.5C 17.163,23.8211 8.32967,24.1545 -0.5,24.5C -0.5,19.8333 -0.5,15.1667 -0.5,10.5C 13.5324,9.51573 27.5324,9.01573 41.5,9C 43.7452,6.91254 46.4119,5.57921 49.5,5C 48.8921,4.13008 48.0588,3.63008 47,3.5C 39.2466,2.5821 31.4133,2.5821 23.5,3.5C 23.5,2.5 23.5,1.5 23.5,0.5C 25.099,0.767809 26.4324,0.434475 27.5,-0.5 Z"/></g>
<g><path style="opacity:1" fill="#8c1ff3" d="M 110.5,-0.5 C 111.167,-0.5 111.833,-0.5 112.5,-0.5C 113.509,0.939062 113.176,2.2724 111.5,3.5C 113.828,4.72405 116.161,4.72405 118.5,3.5C 121.837,4.10933 122.17,5.276 119.5,7C 122.168,8.87352 125.168,9.70686 128.5,9.5C 133.171,9.0366 137.837,8.5366 142.5,8C 142.043,7.58605 141.709,7.08605 141.5,6.5C 138.103,5.82812 134.77,4.99478 131.5,4C 134.5,3.66667 137.5,3.33333 140.5,3C 141.337,1.98873 141.67,0.822066 141.5,-0.5C 160.833,-0.5 180.167,-0.5 199.5,-0.5C 199.5,11.1667 199.5,22.8333 199.5,34.5C 197.738,34.3573 196.071,34.6906 194.5,35.5C 181.573,33.8001 168.573,32.6335 155.5,32C 148.717,30.5337 141.884,29.367 135,28.5C 129.667,29.1667 124.333,29.8333 119,30.5C 101.834,28.706 84.6675,28.0393 67.5,28.5C 70.655,26.9068 74.655,25.9068 79.5,25.5C 83.996,27.6009 88.6627,27.7676 93.5,26C 104.167,25.6667 114.833,25.3333 125.5,25C 116.531,23.949 107.531,23.2823 98.5,23C 98.9574,22.586 99.2907,22.086 99.5,21.5C 98.0663,20.7702 96.8996,19.7702 96,18.5C 94.7574,20.8329 93.0907,21.4996 91,20.5C 90.8522,18.4234 91.3522,16.4234 92.5,14.5C 93.7202,13.2889 94.8869,13.2889 96,14.5C 98.3001,12.0522 99.6335,12.7188 100,16.5C 101.113,15.2396 101.28,14.073 100.5,13C 101.951,13.2626 103.284,13.0959 104.5,12.5C 105.501,10.1582 105.501,7.99151 104.5,6C 102.568,5.86213 100.734,6.36213 99,7.5C 98.3828,6.55085 98.5494,5.71752 99.5,5C 98.5,4.66667 97.5,4.33333 96.5,4C 101.134,2.18183 105.801,0.681835 110.5,-0.5 Z"/></g>
<g><path style="opacity:1" fill="#1232f2" d="M 112.5,-0.5 C 122.167,-0.5 131.833,-0.5 141.5,-0.5C 141.67,0.822066 141.337,1.98873 140.5,3C 137.5,3.33333 134.5,3.66667 131.5,4C 134.77,4.99478 138.103,5.82812 141.5,6.5C 141.709,7.08605 142.043,7.58605 142.5,8C 137.837,8.5366 133.171,9.0366 128.5,9.5C 125.168,9.70686 122.168,8.87352 119.5,7C 122.17,5.276 121.837,4.10933 118.5,3.5C 116.161,4.72405 113.828,4.72405 111.5,3.5C 113.176,2.2724 113.509,0.939062 112.5,-0.5 Z"/></g>
<g><path style="opacity:1" fill="#1332f4" d="M -0.5,26.5 C -0.5,25.8333 -0.5,25.1667 -0.5,24.5C 8.32967,24.1545 17.163,23.8211 26,23.5C 36.2852,23.496 46.4518,24.3294 56.5,26C 47.9986,26.367 39.4986,26.2003 31,25.5C 23.6132,25.6815 16.2798,26.3482 9,27.5C 5.78264,27.4087 2.61597,27.0754 -0.5,26.5 Z"/></g>
<g><path style="opacity:1" fill="#1b2cf2" d="M 67.5,28.5 C 84.6675,28.0393 101.834,28.706 119,30.5C 124.333,29.8333 129.667,29.1667 135,28.5C 141.884,29.367 148.717,30.5337 155.5,32C 168.573,32.6335 181.573,33.8001 194.5,35.5C 196.071,34.6906 197.738,34.3573 199.5,34.5C 199.5,35.5 199.5,36.5 199.5,37.5C 166.543,36.9963 133.71,35.3296 101,32.5C 85.5094,33.5382 70.0094,33.7049 54.5,33C 58.7146,30.7632 63.048,29.2632 67.5,28.5 Z"/></g>
<g><path style="opacity:1" fill="#1a29f2" d="M -0.5,30.5 C 5.28956,30.0962 10.9562,30.5962 16.5,32C 15.062,32.2189 13.7287,32.7189 12.5,33.5C 19.5243,34.0172 26.5243,33.3506 33.5,31.5C 36.0635,31.737 36.0635,32.237 33.5,33C 46.4066,35.738 59.4066,36.238 72.5,34.5C 70.3021,35.1653 67.9688,35.8319 65.5,36.5C 68.4465,37.3214 71.4465,37.8214 74.5,38C 61.8286,38.6804 49.1619,39.0137 36.5,39C 38.2556,38.7978 39.9223,38.2978 41.5,37.5C 41,37.1667 40.5,36.8333 40,36.5C 29.8177,37.8063 19.651,39.1396 9.5,40.5C -2.24519,39.8869 -2.24519,38.3869 9.5,36C 6.18323,35.5017 2.8499,35.335 -0.5,35.5C -0.5,33.8333 -0.5,32.1667 -0.5,30.5 Z"/></g>
<g><path style="opacity:1" fill="#7b11f6" d="M 72.5,34.5 C 78.8723,35.6258 85.3723,36.6258 92,37.5C 93.4357,37.4411 94.769,37.1078 96,36.5C 107.079,37.7554 118.245,38.5888 129.5,39C 128.056,40.0637 126.389,40.5637 124.5,40.5C 115.214,40.362 106.047,40.362 97,40.5C 96.3076,41.0253 95.8076,41.6919 95.5,42.5C 98.267,43.4336 101.1,44.1003 104,44.5C 114.919,43.8511 125.753,42.5178 136.5,40.5C 138.107,40.637 139.441,41.3036 140.5,42.5C 138.96,43.5321 138.46,44.8654 139,46.5C 139.667,45.1667 140.333,45.1667 141,46.5C 141.419,45.3279 142.085,44.3279 143,43.5C 144.435,45.2113 146.269,46.378 148.5,47C 152.821,47.499 157.154,47.6657 161.5,47.5C 161.5,45.5 161.5,43.5 161.5,41.5C 174.189,42.3111 186.856,43.3111 199.5,44.5C 199.5,47.1667 199.5,49.8333 199.5,52.5C 197.473,52.3379 195.473,52.5045 193.5,53C 194.634,54.016 194.301,54.6827 192.5,55C 194.167,55.3333 195.833,55.6667 197.5,56C 191.784,56.2818 186.117,56.9484 180.5,58C 143.476,58.6485 106.476,59.8152 69.5,61.5C 59.1059,59.6547 48.6059,58.3214 38,57.5C 30.0738,58.9799 22.0738,59.9799 14,60.5C 9.14705,60.3237 4.31372,59.9903 -0.5,59.5C -0.5,57.8333 -0.5,56.1667 -0.5,54.5C 8.05224,55.4842 16.5522,55.8176 25,55.5C 26.7618,55.0556 26.5951,54.5556 24.5,54C 27.6667,53.8333 30.8333,53.6667 34,53.5C 63.8266,54.5874 93.66,54.7541 123.5,54C 135.323,53.9791 146.99,53.3124 158.5,52C 150.371,50.8037 142.204,49.9704 134,49.5C 113.655,50.7684 93.3221,50.7684 73,49.5C 56.926,51.2572 40.7593,52.0905 24.5,52C 23.5,52.5 22.5,53 21.5,53.5C 14.224,52.5345 6.89067,52.2012 -0.5,52.5C -0.5,46.8333 -0.5,41.1667 -0.5,35.5C 2.8499,35.335 6.18323,35.5017 9.5,36C -2.24519,38.3869 -2.24519,39.8869 9.5,40.5C 19.651,39.1396 29.8177,37.8063 40,36.5C 40.5,36.8333 41,37.1667 41.5,37.5C 39.9223,38.2978 38.2556,38.7978 36.5,39C 49.1619,39.0137 61.8286,38.6804 74.5,38C 71.4465,37.8214 68.4465,37.3214 65.5,36.5C 67.9688,35.8319 70.3021,35.1653 72.5,34.5 Z"/></g>
<g><path style="opacity:1" fill="#1b20f4" d="M -0.5,54.5 C -0.5,53.8333 -0.5,53.1667 -0.5,52.5C 6.89067,52.2012 14.224,52.5345 21.5,53.5C 22.5,53 23.5,52.5 24.5,52C 40.7593,52.0905 56.926,51.2572 73,49.5C 93.3221,50.7684 113.655,50.7684 134,49.5C 142.204,49.9704 150.371,50.8037 158.5,52C 146.99,53.3124 135.323,53.9791 123.5,54C 93.66,54.7541 63.8266,54.5874 34,53.5C 30.8333,53.6667 27.6667,53.8333 24.5,54C 26.5951,54.5556 26.7618,55.0556 25,55.5C 16.5522,55.8176 8.05224,55.4842 -0.5,54.5 Z"/></g>
<g><path style="opacity:1" fill="#251bf6" d="M 199.5,52.5 C 199.5,54.8333 199.5,57.1667 199.5,59.5C 163.053,60.5883 126.72,62.9216 90.5,66.5C 89.5222,66.189 88.8555,65.5223 88.5,64.5C 76.1667,63.1667 63.8333,63.1667 51.5,64.5C 50.6906,66.0709 50.3573,67.7376 50.5,69.5C 33.4993,68.1944 16.4993,68.1944 -0.5,69.5C -0.5,66.1667 -0.5,62.8333 -0.5,59.5C 4.31372,59.9903 9.14705,60.3237 14,60.5C 22.0738,59.9799 30.0738,58.9799 38,57.5C 48.6059,58.3214 59.1059,59.6547 69.5,61.5C 106.476,59.8152 143.476,58.6485 180.5,58C 186.117,56.9484 191.784,56.2818 197.5,56C 195.833,55.6667 194.167,55.3333 192.5,55C 194.301,54.6827 194.634,54.016 193.5,53C 195.473,52.5045 197.473,52.3379 199.5,52.5 Z"/></g>
<g><path style="opacity:1" fill="#520bf9" d="M 199.5,59.5 C 199.5,73.1667 199.5,86.8333 199.5,100.5C 189.292,102.43 178.958,102.93 168.5,102C 167.366,100.984 167.699,100.317 169.5,100C 175.167,99.6667 180.833,99.3333 186.5,99C 185.529,97.7964 184.529,97.2964 183.5,97.5C 185.353,96.2404 187.186,96.2404 189,97.5C 190.204,96.5294 190.704,95.5294 190.5,94.5C 191.935,96.4011 193.602,96.7345 195.5,95.5C 195.167,94.8333 194.833,94.1667 194.5,93.5C 190.555,91.1237 186.222,89.957 181.5,90C 174.164,85.8216 166.164,83.655 157.5,83.5C 155.359,83.6132 153.525,84.2799 152,85.5C 150.939,82.834 150.106,80.1673 149.5,77.5C 132.343,76.2887 115.01,75.4554 97.5,75C 94.5766,72.5838 92.2433,69.7504 90.5,66.5C 126.72,62.9216 163.053,60.5883 199.5,59.5 Z"/></g>
<g><path style="opacity:1" fill="#8304f8" d="M 50.5,69.5 C 50.5,71.1667 50.5,72.8333 50.5,74.5C 41.1809,73.7016 31.8475,73.0349 22.5,72.5C 14.8787,73.4695 7.21207,74.1362 -0.5,74.5C -0.5,72.8333 -0.5,71.1667 -0.5,69.5C 16.4993,68.1944 33.4993,68.1944 50.5,69.5 Z"/></g>
<g><path style="opacity:1" fill="#7d05f7" d="M 149.5,77.5 C 150.106,80.1673 150.939,82.834 152,85.5C 153.525,84.2799 155.359,83.6132 157.5,83.5C 166.164,83.655 174.164,85.8216 181.5,90C 186.222,89.957 190.555,91.1237 194.5,93.5C 194.833,94.1667 195.167,94.8333 195.5,95.5C 193.602,96.7345 191.935,96.4011 190.5,94.5C 190.704,95.5294 190.204,96.5294 189,97.5C 187.186,96.2404 185.353,96.2404 183.5,97.5C 184.529,97.2964 185.529,97.7964 186.5,99C 180.833,99.3333 175.167,99.6667 169.5,100C 167.699,100.317 167.366,100.984 168.5,102C 178.958,102.93 189.292,102.43 199.5,100.5C 199.5,103.833 199.5,107.167 199.5,110.5C 182.875,108.28 166.209,107.613 149.5,108.5C 149.5,98.1667 149.5,87.8333 149.5,77.5 Z"/></g>
<g><path style="opacity:1" fill="#4f0df9" d="M 50.5,74.5 C 50.5,91.1667 50.5,107.833 50.5,124.5C 77.1667,124.5 103.833,124.5 130.5,124.5C 131.609,125.29 132.942,125.79 134.5,126C 144.167,126.333 153.833,126.667 163.5,127C 164.624,127.249 165.624,127.749 166.5,128.5C 137.829,129.695 109.162,129.528 80.5,128C 53.5705,125.678 26.5705,124.844 -0.5,125.5C -0.5,108.5 -0.5,91.5 -0.5,74.5C 7.21207,74.1362 14.8787,73.4695 22.5,72.5C 31.8475,73.0349 41.1809,73.7016 50.5,74.5 Z"/></g>
<g><path style="opacity:1" fill="#1a16f5" d="M 199.5,110.5 C 199.5,111.5 199.5,112.5 199.5,113.5C 191.472,113.169 183.472,113.502 175.5,114.5C 167.035,116.975 158.369,118.309 149.5,118.5C 149.5,115.167 149.5,111.833 149.5,108.5C 166.209,107.613 182.875,108.28 199.5,110.5 Z"/></g>
<g><path style="opacity:1" fill="#7503fa" d="M 199.5,113.5 C 199.5,117.167 199.5,120.833 199.5,124.5C 187.187,123.771 174.854,123.271 162.5,123C 166.243,121.864 169.91,120.53 173.5,119C 166.855,119.438 160.188,120.105 153.5,121C 152.264,122.085 150.931,122.918 149.5,123.5C 149.5,121.833 149.5,120.167 149.5,118.5C 158.369,118.309 167.035,116.975 175.5,114.5C 183.472,113.502 191.472,113.169 199.5,113.5 Z"/></g>
<g><path style="opacity:1" fill="#0a110c" d="M 90.5,66.5 C 92.2433,69.7504 94.5766,72.5838 97.5,75C 115.01,75.4554 132.343,76.2887 149.5,77.5C 149.5,87.8333 149.5,98.1667 149.5,108.5C 149.5,111.833 149.5,115.167 149.5,118.5C 149.5,120.167 149.5,121.833 149.5,123.5C 143.355,124.49 137.022,124.823 130.5,124.5C 103.833,124.5 77.1667,124.5 50.5,124.5C 50.5,107.833 50.5,91.1667 50.5,74.5C 50.5,72.8333 50.5,71.1667 50.5,69.5C 50.3573,67.7376 50.6906,66.0709 51.5,64.5C 63.8333,63.1667 76.1667,63.1667 88.5,64.5C 88.8555,65.5223 89.5222,66.189 90.5,66.5 Z"/></g>
<g><path style="opacity:1" fill="#eba8f3" d="M 53.5,65.5 C 64.505,65.3335 75.505,65.5002 86.5,66C 89.8333,70 93.1667,74 96.5,78C 113.488,77.7783 130.488,77.6116 147.5,77.5C 147.5,80.5 147.5,83.5 147.5,86.5C 88.8333,87.1667 88.8333,87.8333 147.5,88.5C 147.5,99.8333 147.5,111.167 147.5,122.5C 116.167,122.5 84.8333,122.5 53.5,122.5C 53.5,103.5 53.5,84.5 53.5,65.5 Z"/></g>
<g><path style="opacity:1" fill="#222223" d="M 133.5,100.5 C 135.5,100.5 137.5,100.5 139.5,100.5C 139.5,101.5 139.5,102.5 139.5,103.5C 137.459,103.146 135.626,103.146 134,103.5C 133.517,102.552 133.351,101.552 133.5,100.5 Z"/></g>
<g><path style="opacity:1" fill="#191b1b" d="M 127.5,101.5 C 128.919,100.549 130.585,100.216 132.5,100.5C 132.5,101.5 132.5,102.5 132.5,103.5C 130.801,103.66 129.134,103.494 127.5,103C 128.738,102.31 128.738,101.81 127.5,101.5 Z"/></g>
<g><path style="opacity:1" fill="#0f1210" d="M 81.5,92.5 C 84.1483,92.7385 85.9817,94.0718 87,96.5C 87.3742,95.5838 87.8742,94.7504 88.5,94C 94.6769,90.7225 97.5102,92.5559 97,99.5C 98.5998,98.1341 100.433,97.1341 102.5,96.5C 101.467,95.548 100.3,95.548 99,96.5C 97.1739,95.9896 97.0072,95.1562 98.5,94C 100.81,93.5034 103.143,93.3367 105.5,93.5C 105.46,96.8806 105.793,100.214 106.5,103.5C 104.523,102.851 102.69,102.851 101,103.5C 99.5272,103.097 98.1939,102.43 97,101.5C 96.2937,108.753 93.1271,110.253 87.5,106C 90.112,104.017 89.9453,102.184 87,100.5C 84.5038,104.002 81.6705,104.335 78.5,101.5C 76.6354,97.4483 77.6354,94.4483 81.5,92.5 Z"/></g>
<g><path style="opacity:1" fill="#dc9adf" d="M 90.5,95.5 C 92.4841,95.484 93.4841,96.484 93.5,98.5C 93.5472,100 92.8805,101 91.5,101.5C 90.5344,99.604 90.2011,97.604 90.5,95.5 Z"/></g>
<g><path style="opacity:1" fill="#e9a4e6" d="M 81.5,95.5 C 83.9238,97.2276 84.0904,99.2276 82,101.5C 81.5045,99.5273 81.3379,97.5273 81.5,95.5 Z"/></g>
<g><path style="opacity:1" fill="#090c0a" d="M 66.5,90.5 C 68.6282,89.3709 70.9615,89.2042 73.5,90C 71.623,93.4935 70.9564,97.3268 71.5,101.5C 73.3904,101.703 74.8904,101.037 76,99.5C 76.49,100.793 76.6567,102.127 76.5,103.5C 73.1501,103.665 69.8168,103.498 66.5,103C 68.0591,101.004 68.7258,98.6709 68.5,96C 68.4535,93.7047 67.7868,91.8714 66.5,90.5 Z"/></g>
<g><path style="opacity:1" fill="#222b1e" d="M 128.5,80.5 C 129.5,80.5 130.5,80.5 131.5,80.5C 131.5,82.1667 131.5,83.8333 131.5,85.5C 130.5,85.5 129.5,85.5 128.5,85.5C 128.5,83.8333 128.5,82.1667 128.5,80.5 Z"/></g>
<g><path style="opacity:1" fill="#272927" d="M 115.5,79.5 C 119.656,80.2115 120.323,82.0449 117.5,85C 116.552,85.4828 115.552,85.6495 114.5,85.5C 114.325,83.3792 114.659,81.3792 115.5,79.5 Z"/></g>
<g><path style="opacity:1" fill="#202a1e" d="M 120.5,80.5 C 125.041,80.3309 125.374,80.9975 121.5,82.5C 122.826,82.2052 124.159,82.7052 125.5,84C 121.674,86.3632 120.007,85.1965 120.5,80.5 Z"/></g>
<g><path style="opacity:1" fill="#7b02f8" d="M -0.5,137.5 C -0.5,136.833 -0.5,136.167 -0.5,135.5C 7.83999,135.666 16.1733,135.5 24.5,135C 34.9601,134.505 42.6267,133.338 47.5,131.5C 55.1315,131.526 62.4648,133.026 69.5,136C 91.0368,137.853 112.537,137.686 134,135.5C 137.833,135.833 141.667,136.167 145.5,136.5C 134.188,138.861 122.688,140.527 111,141.5C 95.1616,140.762 79.3283,139.928 63.5,139C 57.3104,137.742 51.1437,136.575 45,135.5C 29.8642,136.901 14.6976,137.568 -0.5,137.5 Z"/></g>
<g><path style="opacity:1" fill="#2e0cfa" d="M 199.5,124.5 C 199.5,130.167 199.5,135.833 199.5,141.5C 197.297,141.604 195.297,142.27 193.5,143.5C 183.175,142.235 172.675,141.235 162,140.5C 149.696,141.427 137.53,143.261 125.5,146C 113.158,146.616 100.825,146.949 88.5,147C 89.8333,146.667 91.1667,146.333 92.5,146C 85.8333,145.333 79.1667,145.333 72.5,146C 73.1667,146.333 73.8333,146.667 74.5,147C 65.1808,146.304 55.8475,145.304 46.5,144C 30.8369,143.5 15.1702,143.333 -0.5,143.5C -0.5,141.5 -0.5,139.5 -0.5,137.5C 14.6976,137.568 29.8642,136.901 45,135.5C 51.1437,136.575 57.3104,137.742 63.5,139C 79.3283,139.928 95.1616,140.762 111,141.5C 122.688,140.527 134.188,138.861 145.5,136.5C 141.667,136.167 137.833,135.833 134,135.5C 112.537,137.686 91.0368,137.853 69.5,136C 62.4648,133.026 55.1315,131.526 47.5,131.5C 42.6267,133.338 34.9601,134.505 24.5,135C 16.1733,135.5 7.83999,135.666 -0.5,135.5C -0.5,132.167 -0.5,128.833 -0.5,125.5C 26.5705,124.844 53.5705,125.678 80.5,128C 109.162,129.528 137.829,129.695 166.5,128.5C 165.624,127.749 164.624,127.249 163.5,127C 153.833,126.667 144.167,126.333 134.5,126C 132.942,125.79 131.609,125.29 130.5,124.5C 137.022,124.823 143.355,124.49 149.5,123.5C 150.931,122.918 152.264,122.085 153.5,121C 160.188,120.105 166.855,119.438 173.5,119C 169.91,120.53 166.243,121.864 162.5,123C 174.854,123.271 187.187,123.771 199.5,124.5 Z"/></g>
<g><path style="opacity:1" fill="#7502f8" d="M 193.5,143.5 C 179.674,143.604 166.007,145.437 152.5,149C 127.838,149.853 103.172,150.519 78.5,151C 81.7527,152.036 85.086,152.703 88.5,153C 86.884,154.077 85.0507,154.577 83,154.5C 67.2321,151.45 51.3988,148.617 35.5,146C 23.4982,145.7 11.4982,145.867 -0.5,146.5C -0.5,145.5 -0.5,144.5 -0.5,143.5C 15.1702,143.333 30.8369,143.5 46.5,144C 55.8475,145.304 65.1808,146.304 74.5,147C 73.8333,146.667 73.1667,146.333 72.5,146C 79.1667,145.333 85.8333,145.333 92.5,146C 91.1667,146.333 89.8333,146.667 88.5,147C 100.825,146.949 113.158,146.616 125.5,146C 137.53,143.261 149.696,141.427 162,140.5C 172.675,141.235 183.175,142.235 193.5,143.5 Z"/></g>
<g><path style="opacity:1" fill="#6d01f9" d="M -0.5,151.5 C 10.505,151.333 21.505,151.5 32.5,152C 40.6228,154.629 48.9561,156.129 57.5,156.5C 54.8929,157.318 52.2263,157.818 49.5,158C 63.1107,159.593 76.7774,159.926 90.5,159C 92.6079,158.64 94.6079,157.973 96.5,157C 109.829,156.5 123.163,156.333 136.5,156.5C 136.5,157.5 136.5,158.5 136.5,159.5C 128.045,160.643 119.545,161.31 111,161.5C 90.846,161.18 70.6793,161.014 50.5,161C 44.1209,158.141 37.4542,156.475 30.5,156C 20.172,155.5 9.83871,155.334 -0.5,155.5C -0.5,154.167 -0.5,152.833 -0.5,151.5 Z"/></g>
<g><path style="opacity:1" fill="#2507fc" d="M 199.5,141.5 C 199.5,144.167 199.5,146.833 199.5,149.5C 187.692,148.868 176.026,149.702 164.5,152C 130.28,151.259 129.946,153.425 163.5,158.5C 167.394,157.173 171.06,157.506 174.5,159.5C 174.333,159.833 174.167,160.167 174,160.5C 171.595,161.274 169.095,161.774 166.5,162C 171.167,162.333 175.833,162.667 180.5,163C 169.324,163.291 158.324,164.624 147.5,167C 117.502,168.565 87.5016,169.065 57.5,168.5C 49.4239,169.19 41.4239,170.19 33.5,171.5C 23.0066,169.739 11.6732,168.739 -0.5,168.5C -0.5,164.167 -0.5,159.833 -0.5,155.5C 9.83871,155.334 20.172,155.5 30.5,156C 37.4542,156.475 44.1209,158.141 50.5,161C 70.6793,161.014 90.846,161.18 111,161.5C 119.545,161.31 128.045,160.643 136.5,159.5C 136.5,158.5 136.5,157.5 136.5,156.5C 123.163,156.333 109.829,156.5 96.5,157C 94.6079,157.973 92.6079,158.64 90.5,159C 76.7774,159.926 63.1107,159.593 49.5,158C 52.2263,157.818 54.8929,157.318 57.5,156.5C 48.9561,156.129 40.6228,154.629 32.5,152C 21.505,151.5 10.505,151.333 -0.5,151.5C -0.5,149.833 -0.5,148.167 -0.5,146.5C 11.4982,145.867 23.4982,145.7 35.5,146C 51.3988,148.617 67.2321,151.45 83,154.5C 85.0507,154.577 86.884,154.077 88.5,153C 85.086,152.703 81.7527,152.036 78.5,151C 103.172,150.519 127.838,149.853 152.5,149C 166.007,145.437 179.674,143.604 193.5,143.5C 195.297,142.27 197.297,141.604 199.5,141.5 Z"/></g>
<g><path style="opacity:1" fill="#5602fa" d="M 199.5,149.5 C 199.5,156.5 199.5,163.5 199.5,170.5C 175.857,167.391 152.19,167.225 128.5,170C 134.942,170.083 141.275,170.749 147.5,172C 135.903,173.874 124.237,173.707 112.5,171.5C 74.8544,173.225 37.1878,173.891 -0.5,173.5C -0.5,171.833 -0.5,170.167 -0.5,168.5C 11.6732,168.739 23.0066,169.739 33.5,171.5C 41.4239,170.19 49.4239,169.19 57.5,168.5C 87.5016,169.065 117.502,168.565 147.5,167C 158.324,164.624 169.324,163.291 180.5,163C 175.833,162.667 171.167,162.333 166.5,162C 169.095,161.774 171.595,161.274 174,160.5C 174.167,160.167 174.333,159.833 174.5,159.5C 171.06,157.506 167.394,157.173 163.5,158.5C 129.946,153.425 130.28,151.259 164.5,152C 176.026,149.702 187.692,148.868 199.5,149.5 Z"/></g>
<g><path style="opacity:1" fill="#1f07fb" d="M 199.5,170.5 C 199.5,180.167 199.5,189.833 199.5,199.5C 198.5,199.5 197.5,199.5 196.5,199.5C 196.5,198.5 196.5,197.5 196.5,196.5C 195.5,196.5 194.5,196.5 193.5,196.5C 191.167,196.5 188.833,196.5 186.5,196.5C 185.5,196.5 184.5,196.5 183.5,196.5C 183.5,197.5 183.5,198.5 183.5,199.5C 132.833,199.5 82.1667,199.5 31.5,199.5C 49.7512,198.9 68.0845,197.567 86.5,195.5C 94.7365,195.38 102.903,196.047 111,197.5C 112.167,197.333 113.333,197.167 114.5,197C 111.625,195.698 108.625,194.865 105.5,194.5C 105.427,191.05 103.594,189.717 100,190.5C 96.0128,190.697 92.1794,191.531 88.5,193C 81.2551,193.725 74.0884,193.225 67,191.5C 60.8737,192.74 54.707,193.74 48.5,194.5C 37.1727,193.872 25.8394,193.372 14.5,193C 9.67082,191.042 4.67082,189.876 -0.5,189.5C -0.5,184.167 -0.5,178.833 -0.5,173.5C 37.1878,173.891 74.8544,173.225 112.5,171.5C 124.237,173.707 135.903,173.874 147.5,172C 141.275,170.749 134.942,170.083 128.5,170C 152.19,167.225 175.857,167.391 199.5,170.5 Z"/></g>
<g><path style="opacity:1" fill="#6002fa" d="M -0.5,189.5 C 4.67082,189.876 9.67082,191.042 14.5,193C 25.8394,193.372 37.1727,193.872 48.5,194.5C 54.707,193.74 60.8737,192.74 67,191.5C 74.0884,193.225 81.2551,193.725 88.5,193C 92.1794,191.531 96.0128,190.697 100,190.5C 103.594,189.717 105.427,191.05 105.5,194.5C 108.625,194.865 111.625,195.698 114.5,197C 113.333,197.167 112.167,197.333 111,197.5C 102.903,196.047 94.7365,195.38 86.5,195.5C 68.0845,197.567 49.7512,198.9 31.5,199.5C 20.8333,199.5 10.1667,199.5 -0.5,199.5C -0.5,196.167 -0.5,192.833 -0.5,189.5 Z"/></g>
<g><path style="opacity:1" fill="#feff65" d="M 186.5,196.5 C 186.5,197.5 186.5,198.5 186.5,199.5C 185.5,199.5 184.5,199.5 183.5,199.5C 183.5,198.5 183.5,197.5 183.5,196.5C 184.5,196.5 185.5,196.5 186.5,196.5 Z"/></g>
<g><path style="opacity:1" fill="#61e78a" d="M 186.5,196.5 C 188.833,196.5 191.167,196.5 193.5,196.5C 193.5,197.5 193.5,198.5 193.5,199.5C 191.167,199.5 188.833,199.5 186.5,199.5C 186.5,198.5 186.5,197.5 186.5,196.5 Z"/></g>
<g><path style="opacity:1" fill="#fe6e3b" d="M 193.5,196.5 C 194.5,196.5 195.5,196.5 196.5,196.5C 196.5,197.5 196.5,198.5 196.5,199.5C 195.5,199.5 194.5,199.5 193.5,199.5C 193.5,198.5 193.5,197.5 193.5,196.5 Z"/></g>
</svg>
